<?xml version="1.0" encoding="iso-8859-1"?>
<!-- Generator: Adobe Illustrator 19.0.0, SVG Export Plug-In . SVG Version: 6.00 Build 0)  -->
<svg version="1.1" id="Layer_1" xmlns="http://www.w3.org/2000/svg" xmlns:xlink="http://www.w3.org/1999/xlink" x="0px" y="0px"
	 viewBox="0 0 511.997 511.997" style="enable-background:new 0 0 511.997 511.997;" xml:space="preserve">
<g>
	<g>
		<path d="M492.508,158.036C438.492,27.621,288.441-34.527,158.035,19.488C27.62,73.505-34.528,223.555,19.488,353.961
			c54.016,130.415,204.066,192.563,334.481,138.547S546.524,288.442,492.508,158.036z M463.366,156.252l-28.186,11.674
			l-2.773-60.151C444.55,122.23,454.859,138.546,463.366,156.252z M409.512,167.183l-45.756-18.953l-18.953-45.756l61.85,2.85
			L409.512,167.183z M255.989,380.687l-88.158-36.514l-36.523-88.183l36.514-88.158l88.183-36.523l88.158,36.514l36.523,88.183
			l-36.514,88.158L255.989,380.687z M330.315,377.615l-11.972,28.902l-28.911-11.972L330.315,377.615z M222.547,394.537
			l-28.894,11.972l-11.972-28.894L222.547,394.537z M117.442,289.441l16.939,40.883l-28.911-11.972L117.442,289.441z
			 M105.487,193.654l28.894-11.972l-16.922,40.866L105.487,193.654z M181.681,134.381l11.972-28.902l28.911,11.972L181.681,134.381z
			 M289.448,117.46l28.894-11.972l11.972,28.894L289.448,117.46z M394.536,289.449l11.972,28.894l-28.894,11.972L394.536,289.449z
			 M394.553,222.556l-16.939-40.883l28.911,11.972L394.553,222.556z M355.769,48.604c17.22,8.277,33.459,18.586,48.247,30.976
			l-59.938-2.765L355.769,48.604z M332.115,38.808l-11.691,28.211l-44.322-40.431C295.311,28.286,314.084,32.476,332.115,38.808z
			 M301.753,84.649l-45.756,18.953l-45.764-18.961l45.773-41.728L301.753,84.649z M236.072,26.443l-44.501,40.567l-11.674-28.177
			C198.432,32.331,217.256,28.082,236.072,26.443z M156.252,48.63l11.665,28.177l-60.143,2.782
			C122.238,67.446,138.545,57.138,156.252,48.63z M105.325,105.334l61.867-2.859l-18.961,45.764l-45.747,18.953L105.325,105.334z
			 M79.563,107.996l-2.748,59.93l-28.22-11.682C56.872,139.015,67.181,122.776,79.563,107.996z M38.807,179.89l28.211,11.682
			l-40.431,44.339C28.286,216.702,32.476,197.929,38.807,179.89z M26.443,275.924l40.576,44.501l-28.186,11.674
			C32.331,313.564,28.081,294.731,26.443,275.924z M48.638,355.745l28.177-11.674l2.773,60.151
			C67.445,389.767,57.137,373.451,48.638,355.745z M42.929,255.981l41.719-45.739l18.953,45.756l-18.953,45.747L42.929,255.981z
			 M102.483,344.813l45.756,18.953l18.953,45.756l-61.85-2.85L102.483,344.813z M156.243,463.393
			c-17.237-8.277-33.476-18.586-48.256-30.976l59.938,2.765L156.243,463.393z M179.88,473.189l11.691-28.203l44.322,40.422
			C216.685,483.71,197.92,479.521,179.88,473.189z M210.242,427.348l45.756-18.953l45.764,18.961l-45.773,41.728L210.242,427.348z
			 M275.923,485.554l44.501-40.567l11.674,28.177C313.564,479.666,294.739,483.915,275.923,485.554z M355.752,463.367
			l-11.674-28.177l60.151-2.782C389.766,444.551,373.459,454.859,355.752,463.367z M406.671,406.663l-61.867,2.859l18.961-45.764
			l45.747-18.953L406.671,406.663z M408.395,255.998l18.953-45.756l41.719,45.764l-41.719,45.747L408.395,255.998z M432.433,404.001
			l2.756-59.93l28.211,11.682C455.123,372.982,444.815,389.212,432.433,404.001z M473.188,332.107l-28.211-11.682l40.431-44.339
			C483.71,295.294,479.52,314.068,473.188,332.107z M444.977,191.572l28.177-11.674c6.511,18.543,10.761,37.367,12.399,56.175
			L444.977,191.572z"/>
	</g>
</g>
<g>
</g>
<g>
</g>
<g>
</g>
<g>
</g>
<g>
</g>
<g>
</g>
<g>
</g>
<g>
</g>
<g>
</g>
<g>
</g>
<g>
</g>
<g>
</g>
<g>
</g>
<g>
</g>
<g>
</g>
</svg>
