<?xml version="1.0" encoding="iso-8859-1"?>
<!-- Generator: Adobe Illustrator 17.1.0, SVG Export Plug-In . SVG Version: 6.00 Build 0)  -->
<!DOCTYPE svg PUBLIC "-//W3C//DTD SVG 1.1//EN" "http://www.w3.org/Graphics/SVG/1.1/DTD/svg11.dtd">
<svg version="1.1" id="Capa_1" xmlns="http://www.w3.org/2000/svg" xmlns:xlink="http://www.w3.org/1999/xlink" x="0px" y="0px"
	 viewBox="0 0 511 511" style="enable-background:new 0 0 511 511;" xml:space="preserve">
<g>
	<path d="M507.911,249.435C425.271,189.332,321.667,85.729,261.565,3.089C260.154,1.148,257.899,0,255.5,0s-4.654,1.148-6.065,3.089
		C189.333,85.729,85.729,189.332,3.089,249.435C1.148,250.846,0,253.101,0,255.5s1.148,4.654,3.089,6.065
		c82.641,60.103,186.244,163.706,246.346,246.346c1.411,1.941,3.666,3.089,6.065,3.089s4.654-1.148,6.065-3.089
		c60.102-82.64,163.705-186.243,246.346-246.346c1.941-1.411,3.089-3.666,3.089-6.065S509.852,250.846,507.911,249.435z
		 M255.5,490.872C195.934,411.335,99.665,315.066,20.128,255.5C99.665,195.934,195.934,99.665,255.5,20.128
		C315.066,99.665,411.335,195.934,490.872,255.5C411.335,315.066,315.066,411.335,255.5,490.872z"/>
	<path d="M261.337,55.284c-1.424-1.765-3.57-2.791-5.837-2.791s-4.413,1.026-5.837,2.791
		C196.12,121.64,121.638,196.122,55.284,249.663c-1.764,1.424-2.79,3.569-2.79,5.837s1.026,4.413,2.79,5.837
		c66.355,53.542,140.837,128.023,194.379,194.379c1.424,1.765,3.57,2.79,5.837,2.79s4.413-1.026,5.837-2.79
		c53.542-66.355,128.024-140.837,194.379-194.379c1.765-1.424,2.791-3.569,2.791-5.837s-1.026-4.413-2.791-5.837
		C389.361,196.121,314.879,121.64,261.337,55.284z M406.231,283.625L263,140.394v-18.787l153.24,153.24
		C412.912,277.733,409.575,280.663,406.231,283.625z M385.23,302.624L263,180.394v-18.787L395.044,293.65
		C391.773,296.614,388.501,299.601,385.23,302.624z M364.64,322.033L263,220.394v-18.787l111.262,111.263
		C371.049,315.901,367.841,318.958,364.64,322.033z M324.589,361.982L263,300.394v-18.787l70.861,70.861
		C330.753,355.63,327.661,358.801,324.589,361.982z M305.134,382.528L263,340.394v-18.787l51.221,51.221
		C311.165,376.057,308.14,379.292,305.134,382.528z M286.073,403.467L263,380.394v-18.787l31.976,31.976
		C291.979,396.88,289.006,400.176,286.073,403.467z M263,401.606l13.141,13.142c-4.48,5.149-8.859,10.275-13.141,15.371V401.606z
		 M71.869,255.5C131.751,206.275,197.25,141.275,248,80.881v22.616c0,0.001,0,0.003,0,0.005v39.995c0,0.001,0,0.003,0,0.005v39.995
		c0,0.001,0,0.003,0,0.005v39.995c0,0.001,0,0.003,0,0.005v39.995c0,0.001,0,0.003,0,0.005v39.995c0,0.001,0,0.003,0,0.005v39.995
		c0,0.002,0,0.004,0,0.005v39.995c0,0.001,0,0.003,0,0.005v46.616C197.25,369.726,131.751,304.726,71.869,255.5z M344.427,341.82
		L263,260.394v-18.787l90.873,90.873C350.712,335.577,347.563,338.691,344.427,341.82z M427.667,265.06L263,100.394V80.881
		c50.75,60.393,116.249,125.393,176.131,174.619C435.331,258.624,431.507,261.814,427.667,265.06z"/>
</g>
<g>
</g>
<g>
</g>
<g>
</g>
<g>
</g>
<g>
</g>
<g>
</g>
<g>
</g>
<g>
</g>
<g>
</g>
<g>
</g>
<g>
</g>
<g>
</g>
<g>
</g>
<g>
</g>
<g>
</g>
</svg>
