<?xml version="1.0" encoding="iso-8859-1"?>
<!-- Generator: Adobe Illustrator 19.0.0, SVG Export Plug-In . SVG Version: 6.00 Build 0)  -->
<svg version="1.1" id="Layer_1" xmlns="http://www.w3.org/2000/svg" xmlns:xlink="http://www.w3.org/1999/xlink" x="0px" y="0px"
	 viewBox="0 0 512 512" style="enable-background:new 0 0 512 512;" xml:space="preserve">
<path style="fill:#0C92B6;" d="M353.613,133.606c-39.327-66.81-77.99-121.944-79.618-124.258C269.876,3.487,263.163,0,256.001,0
	c-7.163,0-13.875,3.487-17.994,9.347c-1.626,2.314-40.291,57.448-79.618,124.258C103.415,226.999,76.69,292.12,76.69,332.691
	C76.69,431.563,157.128,512,256.001,512S435.31,431.563,435.31,332.691C435.31,292.12,408.587,226.997,353.613,133.606z"/>
<path style="fill:#01AEDB;" d="M257.086,0.066C256.724,0.048,256.366,0,256.001,0c-7.161,0-13.875,3.487-17.994,9.347
	c-1.626,2.314-40.291,57.448-79.618,124.258C103.415,226.999,76.69,292.12,76.69,332.691C76.69,431.563,157.128,512,256.001,512
	c0.362,0,0.723-0.012,1.085-0.013V0.066z"/>
<path style="fill:#E6E6E6;" d="M184.274,417.96c-6.089,0-12.148-2.513-16.495-7.435c-19.003-21.52-29.469-49.161-29.469-77.833
	c0-6.83,2.302-27.764,23.623-74.521c5.04-11.053,18.086-15.927,29.136-10.887c11.053,5.04,15.927,18.083,10.887,29.137
	c-18.157,39.818-19.579,55.342-19.658,56.458c0.045,17.874,6.595,35.099,18.453,48.53c8.04,9.105,7.177,23.003-1.928,31.044
	C194.641,416.146,189.447,417.96,184.274,417.96z"/>
<g>
</g>
<g>
</g>
<g>
</g>
<g>
</g>
<g>
</g>
<g>
</g>
<g>
</g>
<g>
</g>
<g>
</g>
<g>
</g>
<g>
</g>
<g>
</g>
<g>
</g>
<g>
</g>
<g>
</g>
</svg>
